<?xml version="1.0" standalone="no"?><!DOCTYPE svg PUBLIC "-//W3C//DTD SVG 1.1//EN" "http://www.w3.org/Graphics/SVG/1.1/DTD/svg11.dtd"><svg t="1677377022072" class="icon" viewBox="0 0 1067 1024" version="1.1" xmlns="http://www.w3.org/2000/svg" p-id="13303" xmlns:xlink="http://www.w3.org/1999/xlink" width="133.375" height="128"><path d="M808.670002 1024a87.845298 87.845298 0 0 1-52.244898-17.335536l-202.891304-148.81158a33.491541 33.491541 0 0 0-39.603658 0l-202.891304 148.81158a87.881042 87.881042 0 0 1-52.256812 17.335536 89.537151 89.537151 0 0 1-72.225444-37.137365 87.344891 87.344891 0 0 1-12.045517-79.386033l78.837968-238.944454a33.360482 33.360482 0 0 0-12.248063-37.673516L36.899076 483.881879a88.583995 88.583995 0 0 1 51.708748-160.487748l252.181416 1.131874a33.360482 33.360482 0 0 0 31.895004-23.280851l76.669536-239.611663a88.595909 88.595909 0 0 1 168.756382 0l76.669537 239.647406a33.360482 33.360482 0 0 0 31.883089 23.280851l252.193331-1.131873a88.583995 88.583995 0 0 1 51.708747 160.452004L826.362972 630.858632a33.360482 33.360482 0 0 0-12.248063 37.673516l78.837968 238.944454a87.332977 87.332977 0 0 1-12.045517 79.386033 89.501408 89.501408 0 0 1-72.225443 37.137365z" fill="#25467A" p-id="13304"></path><path d="M978.665488 373.434854l-251.609523 1.131874a83.532264 83.532264 0 0 1-79.934098-58.071068L570.452331 76.848254c-11.43788-35.743374-61.955181-35.743374-73.440719 0L420.342075 316.49566a83.532264 83.532264 0 0 1-79.934098 58.071068l-251.609522-1.131874c-37.518628-0.178717-53.138482 47.91995-22.63747 69.830638L270.33905 590.242245a83.52035 83.52035 0 0 1 30.524841 93.957415l-78.826053 238.956368c-11.75957 35.624229 29.154679 65.350802 59.405487 43.154167l202.891304-148.81158a83.52035 83.52035 0 0 1 98.794685 0l202.891304 148.81158c30.250809 22.196635 71.165057-7.529937 59.405487-43.154167l-78.826054-238.956368a83.52035 83.52035 0 0 1 30.524841-93.957415l204.225724-146.976753c30.405697-21.910688 14.8335-70.009355-22.685128-69.830638z" fill="#F57C00" p-id="13305"></path><path d="M533.850912 139.157913m-17.048278 5.362219a17.871687 17.871687 0 1 0 34.096556-10.724439 17.871687 17.871687 0 1 0-34.096556 10.724439Z" fill="#FFCC80" p-id="13306"></path><path d="M502.06071 208.883523m-17.048279 5.362219a17.871687 17.871687 0 1 0 34.096557-10.724438 17.871687 17.871687 0 1 0-34.096557 10.724438Z" fill="#FFCC80" p-id="13307"></path><path d="M565.661133 208.876044m-17.048278 5.362219a17.871687 17.871687 0 1 0 34.096557-10.724438 17.871687 17.871687 0 1 0-34.096557 10.724438Z" fill="#FFCC80" p-id="13308"></path><path d="M485.158 276.900002m-17.048279 5.362219a17.871687 17.871687 0 1 0 34.096557-10.724438 17.871687 17.871687 0 1 0-34.096557 10.724438Z" fill="#FFCC80" p-id="13309"></path><path d="M582.562334 276.886636m-17.048278 5.362219a17.871687 17.871687 0 1 0 34.096557-10.724438 17.871687 17.871687 0 1 0-34.096557 10.724438Z" fill="#FFCC80" p-id="13310"></path><path d="M141.787735 423.759665m-0.168434 17.870893a17.871687 17.871687 0 1 0 0.336869-35.741786 17.871687 17.871687 0 1 0-0.336869 35.741786Z" fill="#FFCC80" p-id="13311"></path><path d="M198.269482 475.542305m-0.168434 17.870893a17.871687 17.871687 0 1 0 0.336868-35.741787 17.871687 17.871687 0 1 0-0.336868 35.741787Z" fill="#FFCC80" p-id="13312"></path><path d="M217.925999 415.05739m-0.168434 17.870893a17.871687 17.871687 0 1 0 0.336869-35.741786 17.871687 17.871687 0 1 0-0.336869 35.741786Z" fill="#FFCC80" p-id="13313"></path><path d="M291.311201 884.526321m-5.6826 16.94418a17.871687 17.871687 0 1 0 11.3652-33.88836 17.871687 17.871687 0 1 0-11.3652 33.88836Z" fill="#FFCC80" p-id="13314"></path><path d="M358.015554 846.803384m-5.6826 16.94418a17.871687 17.871687 0 1 0 11.3652-33.888361 17.871687 17.871687 0 1 0-11.3652 33.888361Z" fill="#FFCC80" p-id="13315"></path><path d="M306.566032 809.433239m-5.682601 16.94418a17.871687 17.871687 0 1 0 11.365201-33.888361 17.871687 17.871687 0 1 0-11.365201 33.888361Z" fill="#FFCC80" p-id="13316"></path><path d="M411.683961 801.726982m-5.6826 16.94418a17.871687 17.871687 0 1 0 11.3652-33.88836 17.871687 17.871687 0 1 0-11.3652 33.88836Z" fill="#FFCC80" p-id="13317"></path><path d="M332.874601 744.460945m-5.6826 16.94418a17.871687 17.871687 0 1 0 11.3652-33.88836 17.871687 17.871687 0 1 0-11.3652 33.88836Z" fill="#FFCC80" p-id="13318"></path><path d="M775.766183 884.716525m-10.640514 14.358854a17.871687 17.871687 0 1 0 21.281027-28.717707 17.871687 17.871687 0 1 0-21.281027 28.717707Z" fill="#FFCC80" p-id="13319"></path><path d="M760.505215 809.624966m-10.640513 14.358853a17.871687 17.871687 0 1 0 21.281027-28.717707 17.871687 17.871687 0 1 0-21.281027 28.717707Z" fill="#FFCC80" p-id="13320"></path><path d="M709.065776 847.000599m-10.640514 14.358853a17.871687 17.871687 0 1 0 21.281027-28.717706 17.871687 17.871687 0 1 0-21.281027 28.717706Z" fill="#FFCC80" p-id="13321"></path><path d="M734.20146 744.659731m-10.640514 14.358853a17.871687 17.871687 0 1 0 21.281027-28.717706 17.871687 17.871687 0 1 0-21.281027 28.717706Z" fill="#FFCC80" p-id="13322"></path><path d="M655.395392 801.905836m-10.640513 14.358853a17.871687 17.871687 0 1 0 21.281027-28.717706 17.871687 17.871687 0 1 0-21.281027 28.717706Z" fill="#FFCC80" p-id="13323"></path><path d="M925.657352 424.041537m-14.55686 10.367981a17.871687 17.871687 0 1 0 29.113719-20.735963 17.871687 17.871687 0 1 0-29.113719 20.735963Z" fill="#FFCC80" p-id="13324"></path><path d="M849.510749 415.356588m-14.55686 10.367982a17.871687 17.871687 0 1 0 29.113719-20.735963 17.871687 17.871687 0 1 0-29.113719 20.735963Z" fill="#FFCC80" p-id="13325"></path><path d="M869.178204 475.825532m-14.556859 10.367982a17.871687 17.871687 0 1 0 29.113719-20.735963 17.871687 17.871687 0 1 0-29.113719 20.735963Z" fill="#FFCC80" p-id="13326"></path><path d="M533.731971 641.450585a68.067298 68.067298 0 0 1-67.971982-68.01964 13.606311 13.606311 0 1 1 27.188793-0.810183v0.810183a40.795104 40.795104 0 1 0 81.578293 0 13.606311 13.606311 0 1 1 27.188793-0.810183v0.810183a68.067298 68.067298 0 0 1-67.983897 68.01964zM356.93333 464.675773a40.795104 40.795104 0 0 0 81.578294 0.059572v-0.059572a40.795104 40.795104 0 0 0-81.578294 0zM628.868918 464.675773a40.795104 40.795104 0 1 0 81.590207 0.071487v-0.071487a40.795104 40.795104 0 0 0-81.590207 0z" fill="#25467A" p-id="13327"></path><path d="M343.338934 532.671584h-54.318014a27.200707 27.200707 0 0 0 0 54.389501h54.413329a27.200707 27.200707 0 1 0 0-54.389501h-0.095315z m435.104088 0h-54.3895a27.200707 27.200707 0 0 0 0 54.389501h54.3895a27.200707 27.200707 0 0 0 0-54.389501z" fill="#FFCC80" p-id="13328"></path></svg>