<svg xml:space="preserve" style="enable-background:new 0 0 1024 1024;" viewBox="0 0 1024 1024" y="0px" x="0px" xmlns:xlink="http://www.w3.org/1999/xlink" xmlns="http://www.w3.org/2000/svg" id="图层_1" version="1.1">
<style type="text/css">
	.st0{fill:#FFFFFF;}
	.st1{fill:#ADABB4;}
	.st2{fill:#C6A355;}
	.st3{fill:#EFC4AD;}
	.st4{fill:#FFFDFE;}
	.st5{fill:#384F8D;}
	.st6{fill:#AEDBEB;}
	.st7{fill:#280F12;}
	.st8{fill:#574840;}
	.st9{fill:#C34531;}
	.st10{fill:#E9715A;}
	.st11{fill:#E69F7D;}
	.st12{fill:#F2B3CE;}
	.st13{fill:#203F7D;}
	.st14{fill:#D2AC9D;}
	.st15{fill:#EDE6E9;}
	.st16{fill:#EDC968;}
	.st17{opacity:0.8;}
	.st18{fill:#E3805A;}
	.st19{fill:#FFFFFF;stroke:#000000;stroke-width:0.5;stroke-miterlimit:10;}
	.st20{fill:#4070AF;}
	.st21{fill:#E37B6F;}
	.st22{fill:#F3A596;}
	.st23{fill:#EEC4AE;}
	.st24{fill:#CAAB9E;}
	.st25{fill:#F2E7D8;}
	.st26{fill:#ACA18C;}
	.st27{clip-path:url(#SVGID_4_);}
	.st28{fill:#F2E8D7;}
	.st29{fill:#C5603F;}
	.st30{fill:#D6AA98;}
	.st31{opacity:0.31;}
	.st32{fill:#B45D42;}
	.st33{stroke:#000000;stroke-width:0.25;stroke-miterlimit:10;}
	.st34{stroke:#000000;stroke-width:0.5;stroke-miterlimit:10;}
	.st35{fill:url(#SVGID_7_);}
	.st36{opacity:0.97;fill:#FFFFFF;}
	.st37{fill:url(#SVGID_8_);}
	.st38{fill:#D8D2D1;}
	.st39{fill:#86C1E3;}
</style>
<g>
	<path d="M261.26,73.21c-2.44,7.32-4.88,14.44-7.5,21.57c10.32,1.13,20.82,2.44,31.33,3.94
		c0.19,11.25,0.37,21.76,0.37,31.14c0,11.82-0.94,21.38-2.62,28.51c-7.69,1.12-16.7,1.5-27.2,1.5c-0.75-3.75-0.94-7.31-0.94-11.07
		c5.25-0.37,10.88-0.75,16.7-1.12c0.19-8.44,0.37-20.45,0.37-36.02c-7.88-0.94-15.57-1.88-23.07-3
		c-8.63,22.88-18.01,45.4-28.14,67.91c-4.5-0.75-8.25-2.44-11.63-5.25c7.5-22.14,15.57-43.71,24.01-64.72
		c-8.44-1.12-16.51-2.25-24.39-3.38c-0.37-1.69-0.37-3.75-0.37-6.38c0-1.88,0.19-3.75,0.56-5.82c9.76,0.56,19.7,1.31,29.64,2.06
		c3.38-8.25,6.75-16.51,10.32-24.57C253.57,69.65,257.69,71.15,261.26,73.21z M360.3,112.42c0,21.2-1.31,36.95-3.56,47.08
		c-2.63,1.69-9.38,2.44-20.26,2.44c-12.38,0-23.07-1.13-31.7-3.75c-1.88-13.13-3.19-28.89-3.56-46.9c4.13-0.38,8.25-0.75,12.38-0.75
		c1.31,12.01,2.44,24.57,3.19,37.52c10.51,0.75,20.07,0.94,28.89,0.94c0-6.57,0.38-15.19,1.5-25.89
		c-9.38-0.75-18.01-1.88-25.51-3.75c0-3.75,0-7.13,0.38-10.5C336.1,109.61,348.86,110.92,360.3,112.42z" class="st34"></path>
	<path d="M443.01,129.86v5.07c-5.63,1.5-11.07,2.44-16.32,3.19c0.75,9.38,1.13,17.82,1.5,25.7
		c5.25-0.94,10.69-1.88,16.32-2.81c0.75,3.19,1.12,6.56,1.5,10.32c-13.88,4.13-28.88,7.13-44.83,8.82
		c-0.75-2.81-1.5-6.19-1.88-10.32c5.44-1.12,11.07-2.44,16.7-3.56c-1.69-8.44-2.82-17.26-3.56-26.45c-6,0.75-11.82,0.94-17.63,0.94
		c-0.75-3.19-0.94-6.57-0.94-10.32c5.81-1.31,11.82-2.44,17.82-3.19c-0.37-5.63-0.37-11.25-0.37-17.26
		c4.13-0.75,8.07-1.12,12.01-1.12c0.75,6,1.31,11.63,2.06,16.88c5.63-0.38,11.44-0.56,17.26-0.56
		C442.82,126.68,443.01,128.18,443.01,129.86z M438.88,80.34c0,3-0.56,6.38-1.5,10.13c-12.94,0-26.45-1.5-40.33-4.88
		c0-3.75,0.37-7.32,1.13-10.69C412.06,76.22,425.75,78.09,438.88,80.34z M462.14,115.05c-3,12.38-5.63,21.01-7.88,25.89
		c-4.31,0-7.88-0.94-10.69-2.81c1.88-10.13,4.5-18.76,7.69-26.26C455.57,112.23,459.14,113.36,462.14,115.05z M485.78,91.03
		c-5.82,34.89-12.76,67.16-20.82,96.42c0,0-2.25-0.37-6.38-0.94c-1.69-0.37-3.19-0.94-4.32-1.5c3.94-29.45,11.26-61.53,22.14-96.42
		C479.58,89.16,482.77,89.91,485.78,91.03z M544.49,129.86v5.07c-6.75,1.31-13.13,2.25-19.32,3c0.94,9.94,1.5,19.13,1.69,27.76
		c6.75-0.19,13.5-0.37,20.45-0.37c0.19,1.5,0.37,3.19,0.37,4.88v5.25c-18.95,2.25-37.7,3.19-56.28,3.19
		c-0.75-3.38-1.13-7.13-1.13-10.88c7.51-0.75,15.38-1.31,23.64-1.69c-1.88-8.63-3.19-17.45-3.94-26.64
		c-7.13,0.56-14.26,0.75-21.01,0.75c-0.75-3.19-0.94-6.56-0.94-10.32c6.94-1.12,13.88-2.06,21.01-2.81c-0.37-6-0.37-12.01-0.37-18.2
		c4.13-0.75,8.44-1.13,12.57-1.13c0.94,6.38,1.69,12.38,2.44,18.01c6.75-0.38,13.69-0.56,20.45-0.56
		C544.3,126.68,544.49,128.18,544.49,129.86z M540.36,86.53c0,3-0.56,6.38-1.5,10.32c-15.01,0-30.39-1.69-46.52-5.44
		c0-3.75,0.38-7.31,1.13-10.5C509.6,82.22,525.17,84.09,540.36,86.53z" class="st34"></path>
	<path d="M668.84,173.01c-2.25,4.88-3.94,8.25-5.25,9.75c-7.88-1.88-14.44-4.69-19.89-8.82
		c0.75-4.69,3.56-11.07,8.25-19.14c5.44,0.38,12.01,3,19.89,8.07C671.84,164.94,670.71,168.32,668.84,173.01z M669.96,103.6
		c-1.69,16.32-3.56,27.2-5.63,32.83c-2.25,0.19-3.75,0.19-4.5,0.19c-1.5,0-3.75-0.19-6.75-0.75c-0.37-3.75-0.37-6.56-0.37-8.44
		c0-26.07,2.06-49.52,6.56-70.53c1.88,0,3.75-0.19,5.26-0.19c2.25,0,4.87,0.56,7.5,1.5c0,4.13,0.19,6.94,0.19,8.63
		C672.21,76.97,671.47,89.35,669.96,103.6z" class="st34"></path>
	<path d="M790.38,173.01c-2.25,4.88-3.94,8.25-5.25,9.75c-7.88-1.88-14.44-4.69-19.89-8.82
		c0.75-4.69,3.56-11.07,8.25-19.14c5.44,0.38,12.01,3,19.89,8.07C793.38,164.94,792.25,168.32,790.38,173.01z M791.5,103.6
		c-1.69,16.32-3.56,27.2-5.63,32.83c-2.25,0.19-3.75,0.19-4.5,0.19c-1.5,0-3.75-0.19-6.75-0.75c-0.37-3.75-0.37-6.56-0.37-8.44
		c0-26.07,2.06-49.52,6.56-70.53c1.88,0,3.75-0.19,5.26-0.19c2.25,0,4.87,0.56,7.5,1.5c0,4.13,0.19,6.94,0.19,8.63
		C793.75,76.97,793.01,89.35,791.5,103.6z" class="st34"></path>
	<path d="M911.92,173.01c-2.25,4.88-3.94,8.25-5.25,9.75c-7.88-1.88-14.44-4.69-19.89-8.82
		c0.75-4.69,3.56-11.07,8.25-19.14c5.44,0.38,12.01,3,19.89,8.07C914.92,164.94,913.8,168.32,911.92,173.01z M913.05,103.6
		c-1.69,16.32-3.56,27.2-5.63,32.83c-2.25,0.19-3.75,0.19-4.5,0.19c-1.5,0-3.75-0.19-6.75-0.75c-0.37-3.75-0.37-6.56-0.37-8.44
		c0-26.07,2.06-49.52,6.56-70.53c1.88,0,3.75-0.19,5.26-0.19c2.25,0,4.87,0.56,7.5,1.5c0,4.13,0.19,6.94,0.19,8.63
		C915.3,76.97,914.55,89.35,913.05,103.6z" class="st34"></path>
</g>
<g>
	<g>
		<path d="M379.01,413.47c-38.78,27.39-60.86,72.46-60.43,119.94c0.07,8.02,1.56,15.23,0.48,20.46
			c-3.02,14.67-44.4,78.72,32.74,137.47c34.14,26,76.23,39.78,119.14,39.46c54.43-0.42,130.94-19.7,180.23-111.34
			c0,0,0.22-0.48,0.62-1.4c29.9-67.95,15.42-148-37.97-199.57c-39.58-38.23-98.95-65.47-182.19-32.53
			C431.63,385.94,406.51,394.04,379.01,413.47z" class="st3"></path>
		<path d="M377.44,410.78c-34.75,24.72-56.86,63.67-61.19,106.01c-0.55,5.35-0.81,10.74-0.77,16.13c0.04,6,1.15,12.02,0.83,18.01
			c-0.19,3.49-1.69,6.8-2.94,10.01c-3.91,10.08-7.56,20.23-9.48,30.91c-2.6,14.48-2.26,29.4,1.98,43.55
			c5.7,19.02,17.81,35.4,32.35,48.65c35.26,32.14,83.07,49.68,130.61,49.83c29.72,0.1,59.5-5.55,86.71-17.61
			c35.04-15.53,63.95-41.83,85.22-73.5c6.03-8.98,11.79-18.27,15.89-28.31c4.04-9.88,7.21-20.12,9.45-30.56
			c4.38-20.44,5.29-41.58,2.57-62.31c-5.4-41.17-24.95-79.57-55.35-107.9c-26.75-24.92-60.09-41.83-96.78-45.04
			c-22.19-1.94-44.65,1.12-65.95,7.43c-14.49,4.29-29.02,9.83-42.58,16.53C397.37,397.89,387.15,403.97,377.44,410.78
			c-3.25,2.28-0.15,7.67,3.14,5.36c15.22-10.69,31.83-19.92,49.34-26.32c18.06-6.6,36.14-12.45,55.35-14.55
			c37.35-4.07,73.95,5.57,104.59,27.23c31.47,22.26,55.25,54.39,66.51,91.32c11.87,38.94,9.71,81.34-5.7,118.99
			c-4.01,9.79-9.9,18.91-15.82,27.65c-5.78,8.53-12.11,16.67-19.04,24.3c-12.23,13.48-26.23,25.31-41.78,34.81
			c-25.75,15.73-55.17,24.7-85.17,27.26c-41.13,3.51-82.56-5.08-118.09-26.41c-32.5-19.52-62.3-50.14-62.37-90.28
			c-0.02-12.14,2.56-24.05,6.47-35.5c2.52-7.38,6.89-14.99,7.6-22.85c0.51-5.71-0.6-11.5-0.75-17.21
			c-0.13-5.15,0.08-10.32,0.53-15.45c0.89-10.33,2.94-20.54,6.01-30.44c6-19.32,16.15-37.39,29.71-52.42
			c6.78-7.52,14.37-14.28,22.62-20.15C383.81,413.85,380.71,408.46,377.44,410.78z"></path>
	</g>
	<g>
		<path d="M603.9,681.07c0,0,52.06,41.35,76.24,86.35c12.99,24.17,9.28,53.93-8.84,74.53l-30.85,35.08l-26.13-85.35
			l-48.62-85.53L603.9,681.07z" class="st6"></path>
		<path d="M601.7,683.26c7.49,5.96,14.61,12.44,21.55,19.02c14.95,14.16,29.14,29.36,41.18,46.09c6.35,8.82,12.91,18.32,16.6,28.61
			c3.7,10.3,4.72,21.56,2.72,32.34c-2.02,10.9-6.81,21.25-14.02,29.7c-2.4,2.82-4.89,5.57-7.33,8.35
			c-8.05,9.15-16.1,18.31-24.15,27.46c1.73,0.46,3.46,0.91,5.19,1.37c-8-26.12-15.99-52.24-23.99-78.35
			c-0.79-2.57-1.34-5.41-2.52-7.85c-1.56-3.24-3.6-6.33-5.37-9.45c-8.22-14.45-16.43-28.91-24.65-43.36
			c-6.18-10.87-12.36-21.74-18.54-32.61c-0.37,1.42-0.74,2.83-1.11,4.25c12.73-8.36,25.47-16.72,38.2-25.08
			c3.33-2.18,0.22-7.57-3.14-5.36c-12.73,8.36-25.47,16.72-38.2,25.08c-1.41,0.93-1.98,2.73-1.11,4.25
			c13.56,23.85,27.12,47.7,40.68,71.55c2.41,4.24,4.82,8.49,7.24,12.73c0.21,0.36,0.4,0.73,0.62,1.09c0.35,0.56-0.36-1.05-0.16-0.39
			c0.37,1.25,0.76,2.49,1.14,3.74c4.5,14.69,8.99,29.38,13.49,44.07c3.81,12.45,7.62,24.9,11.44,37.35c0.64,2.11,3.59,3.2,5.19,1.37
			c7.27-8.26,14.53-16.53,21.8-24.79c2.98-3.39,5.97-6.76,8.93-10.16c6.63-7.61,11.67-16.41,14.61-26.09
			c3.23-10.62,3.79-21.98,1.74-32.88c-2.1-11.21-7.44-21.17-13.54-30.68c-11.87-18.51-26.58-35.18-42.2-50.6
			c-8.89-8.78-18.11-17.38-27.9-25.16C602.99,676.41,598.57,680.78,601.7,683.26z"></path>
	</g>
	<path d="M733.38,568.06c-5.96,19.02-24.53,48.41-82.2,55.42l10.63-88.45c0,0,46.06-32.24,67.1-1.12
		C735.65,543.89,736.98,556.57,733.38,568.06z" class="st2"></path>
	<path d="M273.98,520.46c0,0,44.63,40.72,48.76,64.91l-4.74-57.6c0,0-3.8-40.43,2.83-49.7
		C327.47,468.8,268.71,477.33,273.98,520.46z" class="st2"></path>
	<g>
		<g>
			
				<ellipse ry="37.02" rx="31.64" cy="542.03" cx="533.52" class="st0" transform="matrix(0.0757 -0.9971 0.9971 0.0757 -47.3256 1032.9987)"></ellipse>
		</g>
		<g>
			<path d="M502.77,541.85c-0.45,13.21,11.53,24.47,26.76,25.16c15.23,0.69,27.94-9.46,28.39-22.66
				c0.45-13.21-11.53-24.47-26.76-25.16C515.93,518.5,503.22,528.64,502.77,541.85z" class="st7"></path>
		</g>
		<g>
			<path d="M487.47,532.86c2.56-4.18,5.92-7.89,9.6-11.26c3.73-3.32,7.91-6.25,12.51-8.52
				c4.57-2.31,9.6-3.86,14.77-4.65c5.19-0.73,10.52-0.59,15.69,0.33c10.37,1.93,19.83,6.84,27.84,13.06
				c2.02,1.54,3.97,3.16,5.83,4.87c1.87,1.73,3.6,3.42,5.49,4.98c1.86,1.56,3.95,2.91,6.08,4.18c1.07,0.63,2.17,1.2,3.3,1.7
				c1.13,0.46,2.33,0.98,3.58,0.77c-1.22,0.4-2.56,0.07-3.78-0.23c-1.24-0.33-2.43-0.8-3.6-1.29c-2.35-0.99-4.6-2.2-6.77-3.58
				c-2.18-1.36-4.14-3.03-6.09-4.49c-1.98-1.47-3.97-2.93-6.02-4.28c-8.17-5.42-17.11-9.78-26.61-11.45
				c-9.46-1.79-19.31-0.58-28.18,3.15c-4.44,1.86-8.67,4.27-12.61,7.1C494.53,526.06,490.83,529.27,487.47,532.86z" class="st7"></path>
		</g>
		<g>
			<path d="M570.11,552.41c-1.58,3.81-4.01,7.29-6.88,10.39c-2.86,3.12-6.31,5.77-10.11,7.88l-1.43,0.79
				c-0.49,0.24-1,0.44-1.5,0.66c-1.01,0.42-1.99,0.91-3.04,1.26c-2.09,0.69-4.2,1.34-6.4,1.66c-2.16,0.49-4.38,0.61-6.59,0.74
				c-1.11,0.11-2.21-0.02-3.31-0.06l-3.3-0.17l0.21,0.01c-1.79-0.06-3.26-0.31-4.83-0.64c-1.53-0.34-3.04-0.73-4.51-1.23
				c-2.96-0.94-5.76-2.28-8.44-3.73c-1.31-0.79-2.63-1.56-3.85-2.46c-0.62-0.44-1.24-0.87-1.85-1.32l-1.74-1.44
				c-1.19-0.92-2.22-2.02-3.3-3.04c-1.05-1.05-2-2.21-2.98-3.31l3.65,2.55c1.27,0.77,2.43,1.65,3.73,2.35
				c2.5,1.52,5.11,2.82,7.75,3.99c2.64,1.17,5.39,2.05,8.13,2.81c1.37,0.38,2.77,0.66,4.16,0.88c1.36,0.2,2.85,0.38,4.03,0.41
				l0.21,0.01c4.03,0.17,8.08,0.22,12.01-0.5c3.95-0.6,7.78-1.79,11.39-3.49c3.64-1.64,7.07-3.78,10.21-6.33
				C564.66,558.55,567.54,555.65,570.11,552.41z" class="st7"></path>
		</g>
		<g>
			<path d="M586.9,512.55c-2.87,1.58-6.03,2.62-9.24,3.37c-3.22,0.77-6.53,1.14-9.86,1.25c-1.66,0.06-3.33-0.03-5-0.1
				c-1.66-0.22-3.33-0.29-4.96-0.67c-3.29-0.55-6.48-1.65-9.45-3.07c3.32,0.28,6.5,0.72,9.71,0.84c3.2,0.18,6.38,0.26,9.57,0.13
				c3.19-0.06,6.37-0.28,9.56-0.58C580.44,513.4,583.63,513.01,586.9,512.55z" class="st7"></path>
		</g>
		<g>
			<path d="M594.99,520.47c-2.57,1.4-5.4,2.26-8.27,2.86c-2.88,0.6-5.83,0.91-8.79,0.89c-2.96,0.01-5.93-0.29-8.82-0.93
				c-2.9-0.57-5.72-1.59-8.33-2.93c2.96,0.19,5.78,0.57,8.63,0.71c2.83,0.21,5.66,0.27,8.48,0.27
				C583.55,521.39,589.15,520.97,594.99,520.47z" class="st7"></path>
		</g>
		<g>
			
				<ellipse ry="7.44" rx="7.17" cy="542.03" cx="519.91" class="st0" transform="matrix(0.1951 -0.9808 0.9808 0.1951 -113.1518 946.1685)"></ellipse>
		</g>
		<g>
			<path d="M526.96,552.61c-0.07,1.98,3.2,3.74,7.3,3.92c4.1,0.19,7.48-1.27,7.55-3.25c0.07-1.98-3.2-3.74-7.3-3.92
				C530.41,549.17,527.03,550.63,526.96,552.61z" class="st0"></path>
		</g>
		<g>
			<path d="M488.13,513.33c4.92-4.75,10.95-8.42,17.43-11c6.49-2.58,13.5-3.94,20.55-4.25
				c7.05-0.12,14.13,0.48,20.98,2.15c3.42,0.85,6.78,1.93,10.03,3.27c3.23,1.39,6.36,2.98,9.27,4.89
				c-6.15-3.29-12.76-5.66-19.55-7.09c-6.79-1.43-13.76-2.03-20.66-1.8c-6.9,0.18-13.74,1.53-20.2,3.84
				c-3.23,1.15-6.36,2.58-9.34,4.25C493.65,509.26,490.77,511.15,488.13,513.33z" class="st7"></path>
		</g>
	</g>
	<g>
		<g>
			
				<ellipse ry="30.32" rx="28.03" cy="532.04" cx="371.57" class="st0" transform="matrix(0.0616 -0.9981 0.9981 0.0616 -182.3427 870.1508)"></ellipse>
		</g>
		<g>
			
				<ellipse ry="22.19" rx="20.8" cy="533.64" cx="373.63" class="st7" transform="matrix(0.0616 -0.9981 0.9981 0.0616 -181.9981 873.6995)"></ellipse>
		</g>
		<g>
			<path d="M409.02,528.07c-2.44-3.46-5.19-6.63-8.19-9.46c-2.98-2.86-6.23-5.36-9.69-7.4
				c-6.92-4.09-14.84-6.05-22.7-5.33c-7.88,0.62-15.52,3.65-22.62,7.69c-1.78,1.01-3.52,2.11-5.26,3.23
				c-1.71,1.11-3.45,2.4-5.33,3.4c-1.88,1.02-3.81,1.88-5.81,2.54c-1,0.33-2.01,0.63-3.04,0.81c-1.02,0.15-2.14,0.33-3.1-0.14
				c1,0.3,2.02-0.05,2.98-0.35c0.96-0.34,1.91-0.74,2.83-1.2c1.84-0.93,3.65-1.92,5.29-3.13c1.66-1.2,3.21-2.53,4.88-3.89
				c1.65-1.34,3.38-2.59,5.15-3.77c7.03-4.75,15.15-8.23,23.75-8.99c4.29-0.34,8.64,0.02,12.81,1.13c4.15,1.16,8.12,2.98,11.65,5.43
				c3.56,2.41,6.72,5.37,9.49,8.64C404.84,520.59,407.27,524.16,409.02,528.07z" class="st7"></path>
		</g>
		<g>
			<path d="M340.09,537.84c1.82,3.09,3.93,5.91,6.28,8.43c2.35,2.53,4.96,4.73,7.79,6.5c2.8,1.82,5.83,3.22,8.99,4.1
				c3.14,0.99,6.44,1.32,9.74,1.53l0.17,0.01c0.96,0.08,2.19,0.06,3.32,0.01c1.15-0.08,2.31-0.19,3.46-0.4
				c2.3-0.42,4.6-0.95,6.85-1.74c2.24-0.79,4.47-1.71,6.64-2.82c1.11-0.5,2.13-1.18,3.23-1.74l3.18-1.92
				c-0.89,0.88-1.75,1.82-2.7,2.65c-0.96,0.8-1.9,1.67-2.94,2.38l-1.54,1.11c-0.53,0.34-1.07,0.66-1.61,0.99
				c-1.07,0.68-2.21,1.24-3.34,1.82c-2.31,1.04-4.69,1.97-7.18,2.53c-1.24,0.31-2.5,0.51-3.78,0.67c-1.3,0.15-2.52,0.23-3.98,0.13
				l0.17,0.01l-2.71-0.15c-0.9-0.07-1.81-0.05-2.7-0.25c-1.79-0.31-3.58-0.62-5.3-1.24c-1.76-0.48-3.43-1.25-5.07-2.04
				c-0.82-0.4-1.58-0.93-2.37-1.39c-0.39-0.24-0.79-0.46-1.17-0.72l-1.1-0.82c-2.92-2.2-5.51-4.85-7.59-7.86
				C342.76,544.63,341.06,541.34,340.09,537.84z" class="st7"></path>
		</g>
		<g>
			<path d="M329.68,501.19c2.63,0.69,5.19,1.33,7.77,1.9c2.58,0.55,5.15,1.04,7.74,1.38c2.58,0.4,5.19,0.62,7.81,0.75
				c2.63,0.18,5.25,0.08,7.98,0.13c-2.54,0.98-5.23,1.66-7.95,1.85c-1.36,0.19-2.73,0.1-4.09,0.15c-1.36-0.09-2.73-0.16-4.08-0.36
				c-2.7-0.4-5.37-1.02-7.93-1.99C334.38,504.05,331.89,502.85,329.68,501.19z" class="st7"></path>
		</g>
		<g>
			<path d="M322.44,507.44c4.72,0.97,9.25,1.84,13.86,2.32c2.3,0.25,4.6,0.45,6.93,0.53c2.33,0.13,4.66,0.06,7.09,0.15
				c-2.24,0.94-4.62,1.59-7.03,1.83c-2.41,0.3-4.85,0.3-7.26,0.02c-2.41-0.25-4.79-0.79-7.09-1.58
				C326.65,509.92,324.42,508.91,322.44,507.44z" class="st7"></path>
		</g>
		<g>
			<path d="M390.58,534.57c-0.22,3.51-3.11,6.18-6.47,5.97c-3.36-0.21-5.9-3.22-5.69-6.72
				c0.22-3.51,3.11-6.18,6.47-5.97C388.25,528.06,390.79,531.07,390.58,534.57z" class="st0"></path>
		</g>
		<g>
			<path d="M375.22,541.92c-0.11,1.75-2.92,3.01-6.27,2.8c-3.36-0.21-5.99-1.8-5.88-3.55c0.11-1.75,2.92-3.01,6.27-2.8
				C372.7,538.58,375.33,540.16,375.22,541.92z" class="st0"></path>
		</g>
		<g>
			<path d="M410.08,510.8c-1.97-2.15-4.16-4.08-6.46-5.81c-2.29-1.75-4.72-3.29-7.26-4.59
				c-5.07-2.62-10.53-4.43-16.14-5.21c-5.61-0.83-11.33-0.93-16.98-0.29c-5.65,0.64-11.23,2.14-16.51,4.48
				c2.53-1.42,5.21-2.54,7.96-3.47c2.76-0.89,5.58-1.54,8.44-1.98c5.73-0.86,11.54-0.75,17.27,0c5.72,0.91,11.31,2.74,16.39,5.6
				C401.86,502.4,406.47,506.17,410.08,510.8z" class="st7"></path>
		</g>
	</g>
	<g>
		<path d="M462.02,581.43c-0.27,6.48-5.86,8.74-12.63,8.46c-6.77-0.28-12.15-3.01-11.88-9.49
			c0.27-6.48,6.1-14.27,12.86-13.98C457.15,566.7,462.3,574.95,462.02,581.43z" class="st10"></path>
	</g>
	<g>
		<g>
			
				<ellipse ry="40.45" rx="25.42" cy="600.84" cx="334.88" class="st11" transform="matrix(0.042 -0.9991 0.9991 0.042 -279.5063 910.1627)"></ellipse>
		</g>
		<g>
			<g>
				<g>
					<path d="M323.5,588.12c1.74,5.03,3.48,10.05,5.22,15.08c0.25,0.72,0.5,1.44,0.75,2.16
						c0.43,1.24,1.91,2.1,3.48,1.81c1.47-0.27,2.57-1.6,2.14-2.84c-1.74-5.03-3.48-10.05-5.22-15.08c-0.25-0.72-0.5-1.44-0.75-2.16
						c-0.43-1.24-1.91-2.1-3.48-1.81C324.17,585.55,323.06,586.88,323.5,588.12L323.5,588.12z" class="st12"></path>
				</g>
			</g>
			<g>
				<g>
					<path d="M338.83,590.36c1.74,5.03,3.48,10.05,5.22,15.08c0.25,0.72,0.5,1.44,0.75,2.16
						c0.43,1.24,1.91,2.1,3.48,1.81c1.47-0.27,2.57-1.6,2.14-2.84c-1.74-5.03-3.48-10.05-5.22-15.08c-0.25-0.72-0.5-1.44-0.75-2.16
						c-0.43-1.24-1.91-2.1-3.48-1.81C339.5,587.78,338.39,589.11,338.83,590.36L338.83,590.36z" class="st12"></path>
				</g>
			</g>
		</g>
	</g>
	<g>
		<g>
			<ellipse ry="28.33" rx="45.08" cy="610.76" cx="572.42" class="st11"></ellipse>
		</g>
		<g>
			<g>
				<g>
					<path d="M559.15,597.14c2.17,5.52,4.35,11.03,6.52,16.55c0.31,0.79,0.62,1.58,0.94,2.37
						c0.54,1.36,2.23,2.25,3.96,1.86c1.62-0.37,2.79-1.9,2.25-3.27c-2.17-5.52-4.35-11.03-6.52-16.55
						c-0.31-0.79-0.62-1.58-0.94-2.37c-0.54-1.36-2.23-2.25-3.96-1.86C559.77,594.24,558.61,595.77,559.15,597.14L559.15,597.14z" class="st12"></path>
				</g>
			</g>
			<g>
				<g>
					<path d="M576.32,598.91c2.17,5.52,4.35,11.03,6.52,16.55c0.31,0.79,0.62,1.58,0.94,2.37
						c0.54,1.36,2.23,2.25,3.96,1.86c1.62-0.37,2.79-1.9,2.25-3.27c-2.17-5.52-4.35-11.03-6.52-16.55
						c-0.31-0.79-0.62-1.58-0.94-2.37c-0.54-1.36-2.23-2.25-3.96-1.86C576.95,596.01,575.78,597.54,576.32,598.91L576.32,598.91z" class="st12"></path>
				</g>
			</g>
		</g>
	</g>
	<path d="M469.14,552.76c-0.57-0.58-14.2-14.08-30.42-3.47l-4.08-6.24c17.14-11.21,33.55-1.96,39.83,4.5L469.14,552.76z"></path>
	<g>
		<g>
			<g>
				<g>
					<path d="M291.86,548.98l-0.34-37c8.55-15.35,24-13.83,24-13.83c124.39-16.61,121.28-79.98,135.56-88.55
						c14.29-8.57,20.91,11.21,20.91,11.21s46.63,107.77,234.16,113.7c0,0,43.37,29.61,95.33-56.57c0,0-60.09,3.15-86.25-66.88
						c-6.38-17.08-14.15-26.27-26.25-48.39c-32.4-59.2-86.63-148.14-189.01-82.43c0,0-159.63-93.73-213.7,154.76
						c-7.49,34.44-34.43,43.34-70.44,50.44C215.83,485.45,233.98,540.42,291.86,548.98z" class="st2"></path>
				</g>
			</g>
		</g>
		<g>
			<g>
				<g>
					<path d="M326.22,297.78c-18.67,27.42-35.19,66.42-47.08,121.21c-7.85,36.17-35.27,45.68-71.91,53.37
						c0,0,19.09,49.91,66.75,66.29l9.98-38.97c8.79-16.15,24.48-14.67,24.48-14.67c126.51-18.25,123.77-84.68,138.34-93.76
						c14.57-9.08,21.17,11.61,21.17,11.61s46.65,112.69,237.16,117.65c0,0,49.28,24.23,83.38-50.2c0,0-29.32-8.47-66.45-77.78
						c-9.78-18.26-20.45-29.63-32.6-52.74c-32.52-61.86-87.64-154.11-192.12-84.52c0,0-84.82-51.03-153.08,20.11" class="st16"></path>
					<path d="M323.53,296.21c-16.47,24.28-27.82,51.81-36.43,79.75c-2.73,8.85-5.18,17.79-7.39,26.79
						c-2.06,8.35-3.38,17.02-6.36,25.11c-4.32,11.74-12.58,21.05-23.37,27.27c-13.29,7.66-28.71,11.09-43.58,14.22
						c-1.53,0.32-2.75,2.32-2.17,3.82c7.95,20.69,23.11,39.88,40.6,53.23c8.59,6.55,18.12,11.67,28.32,15.23
						c1.57,0.55,3.43-0.63,3.82-2.17c2.4-9.38,4.81-18.77,7.21-28.15c0.88-3.44,1.35-7.5,2.76-10.77
						c2.74-6.35,10.14-10.9,16.71-12.13c1.52-0.28,3.01-0.25,4.54-0.32c4.23-0.2,8.57-1.23,12.74-1.98c10.04-1.8,20-4.06,29.78-6.95
						c15.11-4.47,29.95-10.46,43.38-18.78c17.51-10.86,31.69-25.7,41.44-43.85c2.93-5.46,5.35-11.17,8.3-16.61
						c0.55-1,1.11-2,1.74-2.95c0.26-0.4,0.54-0.79,0.82-1.18c0.28-0.37-0.45,0.52,0.07-0.08c0.17-0.2,0.33-0.4,0.51-0.58
						c0.29-0.29,0.58-0.58,0.88-0.86c0.18-0.17,0.8-0.58-0.02,0c0.28-0.19,0.55-0.39,0.85-0.55c2.75-1.44,5.47-2.35,8.4-0.86
						c4.9,2.5,6.5,7.9,8.47,12.25c1.17,2.59,2.54,5.1,3.97,7.57c6.92,11.96,15.67,22.92,25.28,32.82
						c15.84,16.33,34.45,29.94,54.43,40.76c28.42,15.4,59.61,25.3,91.36,30.98c20.42,3.65,41.12,5.64,61.85,6.3
						c0.54,0.02,2.37-0.13,1.11-0.34c0.04,0.01,0.07,0.04,0.11,0.05c0.18,0.04,0.34,0.17,0.51,0.23c0.94,0.29,1.85,0.77,2.77,1.1
						c2.59,0.91,5.27,1.56,7.98,2.01c9.21,1.52,18.71,0.78,27.52-2.38c13.62-4.89,24.61-14.64,33.28-26.02
						c6.18-8.12,11.16-17.06,15.43-26.31c0.84-1.82,0.21-3.96-1.86-4.56c-0.17-0.05-0.34-0.11-0.5-0.17
						c-0.2-0.08-0.4-0.15-0.59-0.23c0.05,0.02,0.55,0.27-0.27-0.13c-1.97-0.96-3.88-2-5.73-3.18c-7.61-4.86-14.24-11.21-20.31-17.84
						c-11.49-12.55-21.09-26.77-29.69-41.41c-5.08-8.66-9.59-17.63-15.02-26.08c-4.77-7.43-9.9-14.63-14.65-22.08
						c-8.3-13.03-14.99-26.98-22.69-40.37c-6.73-11.72-13.96-23.18-22.1-33.99c-15.84-21.04-35.55-40.44-60.8-49.46
						c-29.74-10.63-61.24-2.85-88.02,12.11c-4.51,2.52-8.9,5.24-13.21,8.1c1.05,0,2.09,0,3.14,0
						c-10.37-6.22-22.36-10.44-33.99-13.47c-24.87-6.5-51.61-6.56-75.87,2.49c-17.95,6.7-33.71,17.84-46.99,31.58
						c-2.78,2.88,1.61,7.27,4.39,4.39c21.3-22.04,49.04-36.03,79.93-36.87c19.99-0.55,40.2,3.84,58.49,11.84
						c3.7,1.62,7.42,3.33,10.89,5.42c0.91,0.55,2.23,0.6,3.14,0c26.45-17.52,58.46-30.3,90.35-21.51
						c25.39,7,45.51,25.75,61.31,46.08c8.23,10.59,15.5,21.92,22.26,33.49c7.34,12.56,13.65,25.71,21.18,38.14
						c4.71,7.78,9.91,15.24,14.95,22.81c5.18,7.79,9.64,15.89,14.21,24.05c8.78,15.65,18.62,30.83,30.28,44.51
						c6.7,7.87,14.08,15.26,22.49,21.3c3.19,2.29,7.33,5.45,11.28,6.33c0.16,0.04,0.31,0.11,0.47,0.16
						c-0.62-1.52-1.24-3.04-1.86-4.56c-11.57,25.04-31.55,52.7-62.13,52.42c-5.73-0.05-11.14-1.03-16.7-3.2
						c-0.32-0.12,0.62,0.12-0.29-0.14c-4.49-1.28-10-0.7-14.69-0.95c-10.53-0.57-21.03-1.49-31.49-2.83
						c-33.65-4.3-67.09-13-97.7-27.82c-21.46-10.39-41.54-23.74-58.74-40.29c-10.7-10.3-19.99-21.31-27.67-33.89
						c-1.81-2.96-3.53-6-5.02-9.13c-0.25-0.52-0.5-1.05-0.72-1.58c0.78,1.85-0.21-0.67-0.34-0.97c-0.89-2.19-1.93-4.31-3.26-6.26
						c-3.49-5.1-8.76-9.08-15.25-8.07c-3.68,0.57-7.29,2.43-9.71,5.29c-3.36,3.97-5.4,8.97-7.64,13.61
						c-7.75,16.07-17.51,30.32-31.5,41.65c-25.97,21.03-60.21,30.11-92.61,35.04c-4.34,0.66-8.55,0.48-12.78,2.07
						c-6.72,2.53-14.16,8.23-16.61,15.24c-1.27,3.62-1.94,7.57-2.89,11.28c-1.57,6.13-3.14,12.25-4.71,18.38
						c-0.79,3.08-1.58,6.15-2.37,9.23c1.27-0.72,2.55-1.45,3.82-2.17c-27.73-9.68-49.15-32.5-61.98-58.42
						c-0.76-1.53-1.47-3.07-2.16-4.63c-0.17-0.4-0.36-0.65-0.03-0.07c-0.07-0.12-0.11-0.45-0.22-0.53
						c-0.09-0.06-0.14-0.36-0.19-0.47c-0.72,1.27-1.45,2.55-2.17,3.82c25.27-5.32,53.92-12.65,67.33-37.06
						c3.49-6.35,5.58-13.19,7.13-20.23c2.16-9.82,4.57-19.58,7.28-29.26c4.6-16.42,10.05-32.65,16.82-48.3
						c6.2-14.34,13.5-28.22,22.27-41.15C331.15,296.03,325.77,292.92,323.53,296.21L323.53,296.21z"></path>
				</g>
				<g>
					<g>
						<path d="M326.22,299.03c1.61,0,1.61-2.5,0-2.5C324.61,296.53,324.6,299.03,326.22,299.03L326.22,299.03z"></path>
					</g>
				</g>
			</g>
		</g>
	</g>
	<path d="M362.43,595.8c-33.55,0-63.81-24.53-70.71-59.67l0,0c-7.81-39.75,17.21-78.25,55.75-85.82
		c18.7-3.68,37.74,0.39,53.63,11.44c15.85,11.02,26.66,27.69,30.44,46.92c3.78,19.23,0.08,38.75-10.43,54.95
		c-10.53,16.24-26.63,27.2-45.32,30.87C371.31,595.37,366.84,595.8,362.43,595.8z M299.03,534.69
		c7.02,35.72,40.81,59.25,75.32,52.49c16.7-3.28,31.08-13.09,40.5-27.62c9.45-14.57,12.77-32.13,9.37-49.46
		c-3.4-17.32-13.13-32.33-27.38-42.24c-14.22-9.88-31.23-13.52-47.94-10.25C314.39,464.4,292.02,498.97,299.03,534.69L299.03,534.69
		z"></path>
	<path d="M538.99,606.44c-33.55,0-63.81-24.53-70.72-59.67l0,0c-7.81-39.75,17.21-78.25,55.75-85.82
		c18.7-3.68,37.75,0.39,53.63,11.44c15.85,11.02,26.66,27.69,30.44,46.92c7.81,39.75-17.2,78.25-55.75,85.82
		C547.87,606.02,543.4,606.44,538.99,606.44z M475.59,545.34c7.02,35.72,40.81,59.26,75.32,52.49
		c34.52-6.78,56.89-41.36,49.87-77.08c-3.4-17.32-13.13-32.33-27.38-42.24c-14.21-9.89-31.23-13.52-47.94-10.25
		C490.95,475.04,468.57,509.62,475.59,545.34L475.59,545.34z"></path>
	<g>
		<g class="st17">
			<g>
				<path d="M659.35,345.81c-8.49-13.54-38.6-53.76-93.65-47.53c0,0,45.94,9.05,66.93,38.62
					c2.13,3.01,3.88,6.26,5.42,9.61c2.72,5.88,12.04,18.87,18.75,16.72c3.13-1,3.13-1.59,4.08-4.12
					C662.53,354.73,661.84,349.79,659.35,345.81z" class="st0"></path>
			</g>
		</g>
		<g class="st17">
			<g>
				<path d="M656.89,385.1c2.97,6.3,9.6,9.41,14.8,6.96c5.2-2.45,7.01-9.55,4.04-15.85c-2.97-6.3-9.6-9.41-14.8-6.96
					C655.73,371.7,653.92,378.8,656.89,385.1z" class="st0"></path>
			</g>
		</g>
	</g>
	<g>
		<path d="M661.8,530.99c0,0,37.88-16.51,50.71,14.82c14.27,34.84-8.46,62.15-63.78,49.97" class="st3"></path>
		<path d="M663.37,533.67c-1.34,0.58,0.26-0.09,0.73-0.27c1.14-0.43,2.3-0.81,3.47-1.17c3.65-1.11,7.41-1.94,11.21-2.28
			c10.09-0.92,20.52,1.42,26.9,9.91c6.22,8.27,9.35,21.04,7.36,31.25c-1.85,9.43-8.21,16.54-16.91,20.4
			c-14.39,6.38-31.67,4.5-46.57,1.27c-3.9-0.84-5.56,5.14-1.65,5.99c23.74,5.14,60.85,6.37,70.17-22.33
			c3.71-11.42,1.11-24.73-4.26-35.19c-5.92-11.54-17.35-17.55-30.07-17.7c-7.94-0.1-16.22,1.61-23.51,4.77
			C656.58,529.89,659.74,535.24,663.37,533.67L663.37,533.67z"></path>
	</g>
	<g>
		<path d="M666.17,565.33l-1.78-1.73c0.04-0.04,1.05-1.07,2.83-2.58c6.07-5.12,21.95-16.37,38.46-10.41l-0.84,2.34
			c-15.29-5.54-30.28,5.14-36.02,9.98C667.14,564.34,666.18,565.32,666.17,565.33z" class="st18"></path>
		<path d="M689.71,575.17l-2.48-0.05c0.09-4.26-1.14-7.42-3.64-9.39c-5.72-4.51-16.35-1.79-16.46-1.76l-0.63-2.4
			c0.49-0.13,11.93-3.06,18.62,2.2C688.27,566.25,689.82,570.09,689.71,575.17z" class="st18"></path>
	</g>
	<g>
		<path d="M654.29,961.44c0,0-4.35-160.29-67.39-266.66c0,0-77.27,58.81-200.89,7.32c0,0-41.87,102.22-42.58,258.16" class="st6"></path>
		<path d="M657.39,961.44c-0.56-20.36-2.71-40.76-5.27-60.94c-5.63-44.44-14.51-88.7-28.71-131.24
			c-8.79-26.34-19.69-52.11-33.83-76.05c-0.78-1.32-2.9-2.14-4.25-1.11c-9.61,7.3-21.39,12.39-32.64,16.47
			c-29.35,10.65-61.03,13.57-91.99,10.21c-25.44-2.76-50.28-9.9-73.87-19.67c-1.68-0.69-3.25,0.78-3.82,2.17
			c-5.86,14.32-10.21,29.38-14.32,44.27c-10.83,39.25-18.17,79.47-22.79,119.91c-3.59,31.47-5.42,63.13-5.58,94.81
			c-0.02,4,6.19,4,6.21,0c0.27-51.96,5-103.92,14.71-154.97c5.67-29.78,12.87-59.4,22.59-88.13c1.61-4.77,3.25-9.56,5.16-14.23
			c-1.27,0.72-2.55,1.45-3.82,2.17c38.67,16.02,80.91,24.54,122.79,20.02c24.09-2.6,48.04-9.22,69.41-20.81
			c3.8-2.06,7.64-4.23,11.09-6.85c-1.42-0.37-2.83-0.74-4.25-1.11c24.71,41.84,39.66,88.99,50.02,136.25
			c7.8,35.57,13.01,71.77,15.75,108.08c0.52,6.91,1,13.84,1.19,20.77C651.29,965.43,657.5,965.45,657.39,961.44L657.39,961.44z"></path>
	</g>
	<g>
		<defs>
			<rect height="81.19" width="206.5" y="766.27" x="384.73" id="SVGID_9_"></rect>
		</defs>
		<clipPath id="SVGID_2_">
			<use style="overflow:visible;" xlink:href="#SVGID_9_"></use>
		</clipPath>
	</g>
	<g>
		<g>
			<path d="M485.54,727.28l54.69-25.35c7.94-3.68,17.04,2.3,17.32,11.38l1.14,36.69c0.27,8.61-7.63,14.85-15.59,12.33
				l-59.56-18.82L485.54,727.28z" class="st20"></path>
			<path d="M487.11,729.96c11.25-5.21,22.5-10.43,33.76-15.64c6.13-2.84,12.27-5.68,18.4-8.53c1.31-0.61,2.63-1.34,4.05-1.65
				c5.38-1.18,10.43,3.03,11.08,8.32c0.69,5.57,0.38,11.42,0.55,17.02c0.21,6.67,0.48,13.35,0.62,20.02
				c0.09,4.28-1.88,8.35-6.14,9.82c-2.39,0.82-4.65,0.27-6.94-0.46c-5.69-1.8-11.37-3.59-17.06-5.39
				c-13.69-4.33-27.37-8.65-41.06-12.98c0.76,1,1.52,2,2.28,2.99c0.67-5.41,1.33-10.82,2-16.23c0.49-3.96-5.73-3.92-6.21,0
				c-0.67,5.41-1.33,10.82-2,16.23c-0.17,1.37,1.09,2.62,2.28,2.99c12.85,4.06,25.69,8.12,38.54,12.18
				c6.42,2.03,12.84,4.06,19.27,6.09c2.44,0.77,4.84,1.39,7.44,1.16c6.02-0.54,11.17-4.79,13.04-10.51
				c0.92-2.82,0.78-5.65,0.69-8.55c-0.12-3.84-0.24-7.68-0.36-11.53c-0.22-7.23-0.29-14.48-0.67-21.7
				c-0.59-11.22-11.28-19.16-22-14.39c-4.16,1.85-8.26,3.83-12.38,5.74c-14.1,6.54-28.21,13.07-42.31,19.61
				C480.35,726.28,483.5,731.63,487.11,729.96z"></path>
		</g>
		<g>
			<path d="M457.6,721.82l-55.22-25.89c-8.01-3.76-16.99,2.13-17.09,11.2l-0.39,36.68
				c-0.09,8.61,7.93,14.93,15.84,12.49l59.18-18.23L457.6,721.82z" class="st20"></path>
			<path d="M459.16,719.14c-12.23-5.73-24.46-11.47-36.69-17.2c-5.8-2.72-11.6-5.46-17.41-8.16c-2.84-1.32-5.71-2.31-8.91-2.04
				c-5.91,0.49-11.02,4.53-13.02,10.09c-0.99,2.76-0.95,5.57-0.98,8.44c-0.04,3.84-0.08,7.68-0.12,11.52
				c-0.08,7.22-0.31,14.47-0.23,21.69c0.12,10.51,9.38,18.71,19.9,15.78c4.93-1.37,9.8-3.02,14.7-4.53
				c14.79-4.56,29.57-9.11,44.36-13.67c1.75-0.54,2.41-2.11,2.17-3.82c-0.78-5.42-1.56-10.83-2.33-16.25
				c-0.57-3.94-6.55-2.27-5.99,1.65c0.78,5.42,1.56,10.83,2.33,16.25c0.72-1.27,1.45-2.55,2.17-3.82
				c-11.73,3.61-23.46,7.23-35.18,10.84c-6.75,2.08-13.5,4.16-20.25,6.24c-1.24,0.38-2.47,0.8-3.72,1.14
				c-5.16,1.41-10.38-1.65-11.65-6.9c-0.5-2.07-0.27-4.37-0.25-6.48c0.04-3.69,0.08-7.37,0.12-11.06c0.07-6.96,0.1-13.92,0.22-20.89
				c0.12-7.35,6.37-12.07,13.29-8.95c5.13,2.32,10.2,4.78,15.3,7.18c13.01,6.1,26.03,12.21,39.04,18.31
				C459.63,726.19,462.78,720.84,459.16,719.14z"></path>
		</g>
		<g>
			
				<ellipse ry="16.18" rx="13.9" cy="731.13" cx="470.46" class="st20" transform="matrix(0.172 -0.9851 0.9851 0.172 -330.6877 1068.8354)"></ellipse>
			<path d="M451.28,729.36c-0.54,7.71,4.84,14.33,11.7,17.18c7.04,2.92,15.48,1.97,21.32-3.05c5.68-4.89,6.89-13.2,3.19-19.63
				c-3.78-6.57-11.68-10.27-19.15-9.76C459.71,714.69,452.21,720.48,451.28,729.36c-0.17,1.67,1.55,3.11,3.11,3.11
				c1.82,0,2.93-1.43,3.11-3.11c0.51-4.9,5.08-8.1,9.64-8.91c5.08-0.91,10.84,1.03,14.07,5.13c2.88,3.65,3.12,8.85-0.12,12.38
				c-3.58,3.9-9.34,4.83-14.28,3.38c-5.38-1.58-9.71-6.21-9.31-11.98c0.12-1.68-1.51-3.11-3.11-3.11
				C452.61,726.26,451.4,727.68,451.28,729.36z"></path>
		</g>
	</g>
	<g>
		<path d="M373.4,700.5c0,0-53.81,38.08-71.54,82.02l70.13-28.39L385,703.88L373.4,700.5z" class="st6"></path>
		<path d="M371.83,697.82c-21.38,15.16-41.14,34.2-56.65,55.3c-6.53,8.88-12.14,18.36-16.32,28.58c-0.86,2.09,1.73,4.67,3.82,3.82
			c17.32-7.01,34.63-14.02,51.95-21.03c6.02-2.44,12.33-4.54,18.18-7.36c2.76-1.33,2.95-5.2,3.65-7.9
			c1.37-5.27,2.73-10.54,4.1-15.81c2.48-9.57,4.96-19.14,7.44-28.71c0.43-1.64-0.54-3.35-2.17-3.82c-3.87-1.13-7.74-2.25-11.61-3.38
			c-3.85-1.12-5.49,4.87-1.65,5.99c3.87,1.13,7.74,2.25,11.61,3.38c-0.72-1.27-1.45-2.55-2.17-3.82
			c-4.34,16.75-8.68,33.51-13.02,50.26c0.72-0.72,1.45-1.45,2.17-2.17c-20.45,8.28-40.9,16.55-61.35,24.83
			c-2.93,1.19-5.86,2.37-8.79,3.56c1.27,1.27,2.55,2.55,3.82,3.82c7.08-17.32,18.92-32.52,31.64-46.05
			c9.91-10.54,20.69-20.31,32.06-29.26c2.08-1.64,4.19-3.27,6.42-4.85C378.2,700.89,375.1,695.5,371.83,697.82z"></path>
	</g>
	<g>
		<path d="M414.21,797.32c9.51,1.38,21.41-6.24,22.38-9.45c1.53-5.07,2.81-8.19,1.83-10.86
			c-0.59-1.61-2.65-1.91-3.87-0.71c-8.73,8.56-28.08,8.32-28.08,8.32s24.84,1.12,32.34-13.12c4.36-8.26-0.19-12.18-4.77-14.02
			c-3-1.2-6.27-0.22-8.49,2.13c-5.98,6.33-23.9,6.65-23.9,6.65c15.52-0.73,22.84-4.33,26.08-8.3c4.03-4.93,0.86-12.44-5.46-13.18
			c-39.75-4.65-116.14,31.96-116.14,31.96c-0.39,0.3-0.76,0.6-1.14,0.9c-27.34,22.18-16.14,69.81,20.93,69.7
			c32.44-0.09,73.78-11.62,103.42-36.6c6.89-5.8,10.25-14.81,9.1-23.74c-0.02-0.12-0.03-0.24-0.05-0.36" class="st3"></path>
		<path d="M414.21,800.43c7.8,0.91,16.5-2.54,22.36-7.63c2.82-2.45,3.62-5.63,4.56-9.17c0.88-3.3,1.52-7.78-1.63-10.11
			c-3.66-2.71-6.41,0.39-9.3,2.33c-3.09,2.07-6.67,3.27-10.27,4.12c-4.38,1.03-8.95,1.59-13.45,1.55c-4.01-0.04-3.98,6.04,0,6.21
			c10.32,0.43,22.46-1.85,30.38-8.82c5.65-4.97,9.86-14.61,3.78-20.85c-2.77-2.84-7.1-4.71-11.06-4.01
			c-4.11,0.72-6.31,4.18-9.94,5.81c-5.46,2.46-12.04,3.18-17.98,3.3c0,2.07,0,4.14,0,6.21c7.85-0.41,16.41-1.25,23.38-5.24
			c5.4-3.09,9.25-8.82,6.85-15.16c-2.75-7.24-10.27-7.69-16.94-7.71c-6.61-0.01-13.23,0.77-19.74,1.87
			c-26.99,4.54-53.16,14.51-78.19,25.33c-5.79,2.5-11.71,4.52-16.37,8.87c-9.42,8.78-14.49,21.69-13.87,34.53
			c0.6,12.34,6.22,24.24,16.31,31.59c12.16,8.86,27.82,7.52,41.95,5.73c18.35-2.33,36.3-7.41,53.1-15.17
			c8.73-4.04,17.13-8.83,24.94-14.46c7.44-5.36,14.39-10.94,17.3-19.99c1.33-4.14,1.7-8.6,1.14-12.9c-0.51-3.91-6.72-3.96-6.21,0
			c1.08,8.36-1.73,16.36-8.14,21.91c-6.56,5.67-13.95,10.48-21.51,14.68c-14.88,8.27-31.1,14.06-47.75,17.54
			c-7.74,1.62-15.58,2.71-23.47,3.2c-6.46,0.39-12.98,0.66-19.23-1.3c-10.39-3.26-17.89-12-20.81-22.33
			c-3-10.64-1.28-22.32,4.73-31.61c2.21-3.41,5.49-7.48,8.88-9.44c1.67-0.96,3.57-1.66,5.33-2.45c20.38-9.18,41.42-17.26,63-23.11
			c12.14-3.29,24.69-6.06,37.32-6.23c4.3-0.06,13.96-0.66,12.7,6.32c-0.86,4.75-7.93,6.74-11.79,7.68
			c-4.23,1.03-8.57,1.44-12.91,1.67c-3.97,0.21-4.02,6.29,0,6.21c4.1-0.08,8.24-0.59,12.26-1.38c3.15-0.62,6.26-1.52,9.16-2.91
			c2.77-1.33,5.56-5.26,8.74-4.95c2.69,0.26,5.62,2.54,5.65,5.36c0.04,3.42-2.52,6.87-4.99,9.02c-4.28,3.71-10.1,5.36-15.57,6.29
			c-3.41,0.58-6.96,0.86-10.42,0.71c0,2.07,0,4.14,0,6.21c8.65,0.08,18.44-1.45,25.93-5.94c0.92-0.55,2.75-1.43,3.29-2.35
			c0.74-0.33,0.72-0.66-0.08-0.98c0.01,0.16,0.03,0.33,0.04,0.49c-0.25,0.42-0.17,1.62-0.3,2.18c-0.67,2.92-1.05,5.46-3.18,7.28
			c-4.75,4.06-11.75,6.54-17.96,5.81C410.24,793.75,410.28,799.96,414.21,800.43L414.21,800.43z"></path>
	</g>
	<g>
		<path d="M599.4,893.08c-2.78,9.2-14.72,16.75-18.04,16.27c-5.24-0.76-8.61-0.93-10.61-2.94
			c-1.21-1.22-0.61-3.21,1-3.81c11.45-4.29,19.43-21.91,19.43-21.91s-9.51,22.97-25.58,23.74c-9.33,0.45-10.96-5.33-10.68-10.26
			c0.18-3.23,2.46-5.78,5.52-6.79c8.27-2.74,16.15-18.84,16.15-18.84c-7.23,13.76-13.59,18.86-18.57,20.11
			c-6.17,1.56-11.64-4.49-9.63-10.53c12.62-37.98,78.14-91.68,78.14-91.68c0.43-0.22,0.87-0.44,1.3-0.65
			c31.67-15.37,70.07,14.94,54.28,48.48c-13.82,29.34-41.77,61.91-76.96,78.19c-8.17,3.78-17.75,3.01-25.36-1.81
			c-0.1-0.06-0.2-0.13-0.31-0.2" class="st3"></path>
		<g>
			<path d="M682,815.05c1.59,13.35-6.83,25.99-13.82,36.64c-9.96,15.17-22.35,28.8-36.54,40.12c-7.49,5.97-15.61,11.22-24.16,15.55
				c-8.71,4.41-17.57,5.46-26.16,0c-3.91-2.49-7.56,3.71-3.66,6.19c7.44,4.73,16.84,6.24,25.31,3.59
				c8.78-2.75,17.23-8.31,24.73-13.51c15.32-10.63,28.66-23.84,39.89-38.69c5.24-6.92,9.99-14.23,14.11-21.88
				c3.59-6.67,6.74-13.42,7.5-21.04c0.31-3.11,0.19-6.2-0.3-9.21"></path>
			<path d="M663.32,781.76c-8.14-3.44-17.21-4.51-26.05-2.86c-4.57,0.85-9.82,2.39-13.55,5.23c-1.88,1.43-3.64,3.06-5.43,4.61
				c-19.67,17.01-38.57,35.38-54.51,55.98c-4.81,6.21-9.34,12.68-13.11,19.58c-3.21,5.87-8.15,14-5.39,20.79
				c3.09,7.61,11.72,8.97,18.27,5.1c7.38-4.36,12.22-12.48,16.14-19.81c-2.06-1.22-4.13-2.44-6.19-3.66
				c-2.36,4.78-5.31,9.56-9,13.43c-1.19,1.24-2.47,2.47-3.99,3.29c-2,1.08-4.01,1.61-5.71,3.23c-3.18,3.02-3.97,7.34-3.22,11.52
				c1.57,8.79,10.67,11.15,18.41,9.2c7.23-1.81,12.93-7.21,17.31-12.99c2.97-3.92,5.46-8.22,7.35-12.76
				c1.55-3.7-4.88-6.45-6.57-2.77c-1.99,4.34-4.59,8.58-7.61,12.28c-2.32,2.84-5.01,5.57-8.27,7.32c-3.21,1.72-6.92,3.81-5.38,8.23
				c1.28,3.7,5.51,4.91,8.97,5.48c3.67,0.6,6.77,1.18,10.25-0.32c7.52-3.26,14.21-10.03,16.84-17.82c1.48-4.39-5.47-6.25-6.94-1.88
				l0,0c-1.89,5.62-7.37,10.96-12.85,13.2c-2.17,0.89-4.97,0.09-7.3-0.46c0.03,0.01-2.14-0.66-2.09-0.7
				c-0.08,0.53-0.17,1.06-0.25,1.58c0.28-0.12,0.57-0.23,0.85-0.35c1.31-0.2,2.92-1.55,3.97-2.3c7.02-4.97,12.46-12.83,16.01-20.6
				c-2.19-0.92-4.38-1.85-6.57-2.77c0.77-1.85-0.04,0.06-0.24,0.47c-0.42,0.86-0.84,1.72-1.3,2.57c-1.48,2.76-3.15,5.47-5.07,7.94
				c-4.26,5.48-11.73,12.18-19.36,9.78c-3.19-1.01-4.5-5.77-2.28-8.38c1.37-1.61,4.09-2.03,5.84-3.23c1.54-1.05,2.96-2.29,4.24-3.64
				c4.12-4.31,7.51-9.55,10.15-14.89c2.03-4.11-4-7.77-6.19-3.66c-3.17,5.94-6.87,12.63-12.52,16.59c-1.53,1.07-3.61,2.27-5.57,1.96
				c-3.4-0.54-4.25-4.01-3.32-6.85c3.61-10.97,10.88-21.02,17.89-30.04c14.57-18.75,31.83-35.53,49.6-51.22
				c3.34-2.95,7.37-7.03,10.84-8.61c9.51-4.33,20.61-4.25,30.16-0.2"></path>
		</g>
		<circle r="4.97" cy="796.99" cx="676.78"></circle>
	</g>
	<path d="M440.28,438.99c0.42,2.98,1.19,5.99,2.31,8.78c0.93,2.33,2.07,4.76,3.98,6.46c2.08,1.86,4.9,2.72,7.61,1.74
		c4.21-1.53,7.06-5.57,9.35-9.21c0.87-1.38,0.34-3.48-1.11-4.25c-1.53-0.81-3.32-0.36-4.25,1.11c-0.6,0.95-1.21,1.88-1.88,2.78
		c-0.19,0.25-0.41,0.5-0.07,0.09c-0.14,0.17-0.27,0.34-0.41,0.5c-0.28,0.33-0.56,0.66-0.86,0.98c-0.51,0.55-1.06,1.03-1.63,1.52
		c-0.16,0.14,0.63-0.44,0.15-0.13c-0.12,0.08-0.23,0.16-0.35,0.24c-0.24,0.15-0.49,0.28-0.74,0.42c-0.45,0.25,0.1-0.08,0.3-0.11
		c-0.11,0.02-0.22,0.09-0.32,0.12c-0.24,0.07-0.49,0.12-0.73,0.19c-0.38,0.11,0.81-0.02,0.42-0.06c-0.09-0.01-0.2,0.01-0.29,0.01
		c-0.1,0-0.19-0.01-0.29-0.01c-0.51,0.01,0.46,0.09,0.4,0.06c-0.14-0.08-0.42-0.11-0.58-0.15c-0.46-0.11,0.3,0.11,0.4,0.18
		c-0.08-0.06-0.2-0.09-0.3-0.14c-0.17-0.1-0.33-0.2-0.49-0.3c-0.56-0.35,0.61,0.56,0.05,0.03c-0.33-0.31-0.6-0.68-0.93-0.99
		c0.12,0.11,0.5,0.69,0.22,0.28c-0.06-0.09-0.13-0.18-0.19-0.27c-0.14-0.2-0.27-0.41-0.4-0.62c-0.27-0.44-0.51-0.89-0.73-1.35
		c-0.11-0.22-0.21-0.44-0.31-0.66c-0.06-0.13-0.25-0.58-0.01-0.02c0.24,0.57,0.02,0.05-0.03-0.08c-0.74-1.83-1.28-3.74-1.72-5.66
		c-0.23-1.03-0.45-2.07-0.6-3.12c-0.23-1.61-2.37-2.64-3.82-2.17C440.68,435.74,440.04,437.26,440.28,438.99L440.28,438.99z"></path>
	<path d="M467.96,473.04c0.24,1.72,0.69,3.45,1.33,5.05c0.62,1.55,1.36,3.16,2.63,4.3c1.54,1.37,3.65,2.06,5.66,1.34
		c2.79-1,4.65-3.48,6.17-5.9c0.87-1.38,0.34-3.48-1.11-4.25c-1.53-0.81-3.32-0.36-4.25,1.11c-0.41,0.66-0.85,1.3-1.32,1.91
		c0.16-0.21,0.32-0.42,0.49-0.63c-0.55,0.7-1.14,1.36-1.85,1.91c0.21-0.16,0.42-0.32,0.63-0.49c-0.31,0.23-0.63,0.44-0.98,0.59
		c0.25-0.1,0.49-0.21,0.74-0.31c-0.25,0.11-0.51,0.18-0.78,0.22c0.28-0.04,0.55-0.07,0.83-0.11c-0.2,0.02-0.41,0.02-0.61,0
		c0.28,0.04,0.55,0.07,0.83,0.11c-0.2-0.03-0.38-0.08-0.57-0.16c0.25,0.1,0.49,0.21,0.74,0.31c-0.24-0.1-0.45-0.24-0.66-0.39
		c0.21,0.16,0.42,0.32,0.63,0.49c-0.28-0.22-0.52-0.48-0.75-0.77c0.16,0.21,0.32,0.42,0.49,0.63c-0.48-0.62-0.84-1.33-1.15-2.05
		c0.1,0.25,0.21,0.49,0.31,0.74c-0.71-1.68-1.18-3.51-1.44-5.31c-0.1-0.71-0.84-1.51-1.43-1.86c-0.67-0.39-1.65-0.55-2.39-0.31
		c-0.75,0.24-1.48,0.71-1.86,1.43C467.86,471.44,467.84,472.17,467.96,473.04L467.96,473.04z"></path>
	<path d="M313.25,620.03c0.42,2.98,1.19,5.99,2.31,8.78c0.93,2.33,2.07,4.76,3.98,6.46c2.08,1.86,4.9,2.72,7.61,1.74
		c4.21-1.53,7.06-5.57,9.35-9.21c0.87-1.38,0.34-3.48-1.11-4.25c-1.53-0.81-3.32-0.36-4.25,1.11c-0.6,0.95-1.21,1.88-1.88,2.78
		c-0.19,0.25-0.41,0.5-0.07,0.09c-0.14,0.17-0.27,0.34-0.41,0.5c-0.28,0.33-0.56,0.66-0.86,0.98c-0.51,0.55-1.06,1.03-1.63,1.52
		c-0.16,0.14,0.63-0.44,0.15-0.13c-0.12,0.08-0.23,0.16-0.35,0.24c-0.24,0.15-0.49,0.28-0.74,0.42c-0.45,0.25,0.1-0.08,0.3-0.11
		c-0.11,0.02-0.22,0.09-0.32,0.12c-0.24,0.07-0.49,0.12-0.73,0.19c-0.38,0.11,0.81-0.02,0.42-0.06c-0.09-0.01-0.2,0.01-0.29,0.01
		c-0.1,0-0.19-0.01-0.29-0.01c-0.51,0.01,0.46,0.09,0.4,0.06c-0.14-0.08-0.42-0.11-0.58-0.15c-0.46-0.11,0.3,0.11,0.4,0.18
		c-0.08-0.06-0.2-0.09-0.3-0.14c-0.17-0.1-0.33-0.2-0.49-0.3c-0.56-0.35,0.61,0.56,0.05,0.03c-0.33-0.31-0.6-0.68-0.93-0.99
		c0.12,0.11,0.5,0.69,0.22,0.28c-0.06-0.09-0.13-0.18-0.19-0.27c-0.14-0.2-0.27-0.41-0.4-0.62c-0.27-0.44-0.51-0.89-0.73-1.35
		c-0.11-0.22-0.21-0.44-0.31-0.66c-0.06-0.13-0.25-0.58-0.01-0.02c0.24,0.57,0.02,0.05-0.03-0.08c-0.74-1.83-1.28-3.74-1.72-5.66
		c-0.23-1.03-0.45-2.07-0.6-3.12c-0.23-1.61-2.37-2.64-3.82-2.17C313.65,616.78,313,618.3,313.25,620.03L313.25,620.03z"></path>
	<path d="M619.59,544.25c0.42,2.98,1.19,5.99,2.32,8.78c0.93,2.33,2.07,4.76,3.98,6.46c2.08,1.86,4.9,2.72,7.61,1.74
		c4.21-1.53,7.06-5.57,9.35-9.21c0.87-1.38,0.34-3.48-1.11-4.25c-1.53-0.81-3.32-0.36-4.25,1.11c-0.6,0.95-1.21,1.88-1.88,2.78
		c-0.19,0.25-0.41,0.5-0.07,0.09c-0.14,0.17-0.27,0.34-0.41,0.5c-0.28,0.33-0.56,0.66-0.86,0.98c-0.51,0.55-1.06,1.03-1.63,1.52
		c-0.16,0.14,0.63-0.44,0.15-0.13c-0.12,0.08-0.23,0.16-0.35,0.24c-0.24,0.15-0.49,0.28-0.74,0.42c-0.45,0.25,0.1-0.08,0.3-0.11
		c-0.11,0.02-0.22,0.09-0.32,0.12c-0.24,0.07-0.49,0.12-0.73,0.19c-0.38,0.11,0.81-0.02,0.42-0.06c-0.09-0.01-0.2,0.01-0.29,0.01
		c-0.1,0-0.19-0.01-0.29-0.01c-0.51,0.01,0.46,0.09,0.4,0.06c-0.14-0.08-0.42-0.11-0.58-0.15c-0.46-0.11,0.3,0.11,0.4,0.18
		c-0.08-0.06-0.2-0.09-0.3-0.14c-0.17-0.1-0.33-0.2-0.49-0.3c-0.56-0.35,0.61,0.56,0.05,0.03c-0.33-0.31-0.6-0.68-0.93-0.99
		c0.12,0.11,0.5,0.69,0.22,0.28c-0.06-0.09-0.13-0.18-0.19-0.27c-0.14-0.2-0.27-0.41-0.4-0.62c-0.27-0.44-0.51-0.89-0.73-1.35
		c-0.11-0.22-0.21-0.44-0.31-0.66c-0.06-0.13-0.25-0.58-0.01-0.02c0.24,0.57,0.02,0.05-0.03-0.08c-0.74-1.83-1.28-3.74-1.72-5.66
		c-0.23-1.03-0.45-2.07-0.6-3.12c-0.23-1.61-2.37-2.64-3.82-2.17C619.99,541.01,619.34,542.52,619.59,544.25L619.59,544.25z"></path>
	<path d="M418.64,641.57c13.36,3.02,30.03,0.7,35.62-13.49c-2.6,0.69-5.19,1.37-7.79,2.06c8.58,10.27,21.9,18.69,35.51,18.91
		c6,0.1,6-9.22,0-9.32c-11.21-0.18-21.93-7.81-28.93-16.18c-2.48-2.97-6.63-0.87-7.79,2.06c-2.2,5.58-8.54,7.38-13.79,7.68
		c-2.66,0.15-5.31,0.01-7.96-0.28c-0.96-0.11,0.82,0.15-0.5-0.07c-0.34-0.06-0.69-0.12-1.03-0.18c-0.29-0.05-0.59-0.11-0.88-0.18
		C415.28,631.27,412.79,640.25,418.64,641.57L418.64,641.57z"></path>
</g>
<g>
	<path d="M172.27,738.01l346.77,8.72c6.75,0.17,12.66,4.61,14.69,11.05l60.5,191.76c3.22,10.19-4.4,20.58-15.09,20.58
		H227.39c-7.11,0-13.35-4.74-15.25-11.6l-55.52-200.48C153.79,747.81,161.65,737.74,172.27,738.01z" class="st38"></path>
	<path d="M172.27,741.11c8.09,0.2,16.18,0.41,24.27,0.61c20.36,0.51,40.72,1.02,61.07,1.54c26.66,0.67,53.32,1.34,79.98,2.01
		c27.31,0.69,54.62,1.37,81.94,2.06c22.01,0.55,44.02,1.11,66.03,1.66c10.83,0.27,21.67,0.5,32.5,0.82
		c6.53,0.19,11.17,4.02,13.1,10.16c1.73,5.49,3.47,10.98,5.2,16.48c7.21,22.86,14.43,45.73,21.64,68.59
		c7.81,24.75,15.62,49.5,23.43,74.25c2.53,8.01,5.05,16.02,7.58,24.03c1.67,5.3,4.25,10.91,1.66,16.38c-3,6.33-8.94,7.32-15.03,7.32
		c-4.98,0-9.96,0-14.95,0c-18.83,0-37.66,0-56.48,0c-26.01,0-52.02,0-78.03,0c-27.65,0-55.3,0-82.96,0c-23.51,0-47.02,0-70.53,0
		c-13.64,0-27.28,0-40.92,0c-5.02,0-9.77,0.09-13.65-4.01c-3.18-3.36-4-8.97-5.2-13.31c-5.5-19.86-11-39.73-16.5-59.59
		c-7.25-26.2-14.51-52.39-21.76-78.59c-4.73-17.09-9.47-34.19-14.2-51.28c-0.27-0.99-0.57-1.98-0.82-2.98
		C157.51,748.89,163.69,741.13,172.27,741.11c4-0.01,4-6.22,0-6.21c-9.71,0.02-18.11,7.08-19.19,16.86
		c-0.33,2.98,0.2,5.82,0.99,8.66c1.59,5.73,3.18,11.47,4.76,17.2c6.48,23.38,12.95,46.77,19.43,70.15
		c7.1,25.65,14.2,51.29,21.31,76.94c2.37,8.58,4.75,17.15,7.12,25.73c1.17,4.21,2.01,9,4.08,12.89c3.99,7.51,11.63,9.9,19.49,9.9
		c4.76,0,9.52,0,14.29,0c18.92,0,37.84,0,56.76,0c26.56,0,53.12,0,79.68,0c28.03,0,56.07,0,84.1,0c23.64,0,47.27,0,70.91,0
		c13.31,0,26.61,0,39.92,0c6.84,0,13.34-1.32,17.95-7.06c4.06-5.06,5.14-11.63,3.26-17.8c-0.47-1.53-0.96-3.06-1.45-4.59
		c-5.96-18.9-11.93-37.81-17.89-56.71c-8.34-26.45-16.69-52.89-25.03-79.34c-5.17-16.37-10.33-32.75-15.5-49.12
		c-2.72-8.61-9.14-14.6-18.49-14.99c-3.08-0.13-6.16-0.16-9.24-0.23c-16.7-0.42-33.4-0.84-50.1-1.26
		c-25.49-0.64-50.97-1.28-76.46-1.92c-28.18-0.71-56.37-1.42-84.55-2.13c-24.83-0.62-49.66-1.25-74.48-1.87
		c-15.15-0.38-30.29-0.76-45.44-1.14c-2.07-0.05-4.14-0.1-6.2-0.16C168.27,734.8,168.28,741.01,172.27,741.11z"></path>
</g>
<circle r="30.51" cy="860.97" cx="369.72"></circle>
<path d="M355.8,883.11c-2.03-1.84-3.16-4.31-3.35-7.34c-0.16-2.46,0.44-4.98,1.72-7.29c0.92-1.66,2.91-5.82,1.53-8.47
	c-2.63-5.04-0.58-7.31-0.33-7.55l1.76,1.76l-0.88-0.88l0.92,0.84c-0.01,0.01-1.02,1.32,0.74,4.69c1.87,3.58-0.18,8.32-1.56,10.82
	c-1.04,1.87-1.54,3.98-1.42,5.93c0.15,2.36,1,4.26,2.54,5.65L355.8,883.11z" class="st39"></path>
<path d="M380.34,882.33c-2-1.81-3.16-4.35-3.35-7.34c-0.16-2.46,0.44-4.98,1.72-7.29c0.92-1.66,2.92-5.81,1.53-8.47
	c-2.62-5.04-0.58-7.31-0.33-7.55l1.76,1.76l-0.88-0.88l0.92,0.84c-0.01,0.01-1.01,1.32,0.74,4.69c1.87,3.59-0.18,8.32-1.56,10.82
	c-1.04,1.87-1.54,3.98-1.41,5.93c0.15,2.36,1,4.26,2.54,5.65L380.34,882.33z" class="st39"></path>
<rect height="2.48" width="14.85" class="st38" y="849.75" x="349.73"></rect>
<rect height="2.48" width="14.85" class="st38" y="849.75" x="371.91"></rect>
<rect height="2.48" width="9.02" class="st38" y="872.48" x="364.37"></rect>
</svg>
